<svg xmlns="http://www.w3.org/2000/svg" viewBox="0 0 400 300" font-family="Comic Sans MS, sans-serif">
  <rect width="400" height="300" fill="#0A0A1A"/>

  <!-- Watch frame -->
  <rect x="100" y="50" width="200" height="220" rx="20" fill="#1A1A2A" stroke="#555" stroke-width="3"/>
  <rect x="112" y="62" width="176" height="196" rx="6" fill="#000"/>

  <!-- JASBROS title -->
  <text x="195" y="100" text-anchor="middle" font-size="32" font-weight="bold" fill="#00CCFF" font-family="monospace">JASBROS</text>
  <text x="265" y="80" text-anchor="middle" font-size="11" fill="#888" font-family="monospace">TM</text>

  <!-- Robot mascot in middle -->
  <g transform="translate(200, 165)">
    <!-- Antennas -->
    <line x1="-11" y1="-28" x2="-11" y2="-19" stroke="white" stroke-width="2"/>
    <line x1="11" y1="-28" x2="11" y2="-19" stroke="white" stroke-width="2"/>
    <circle cx="-11" cy="-30" r="3" fill="#FF4444"/>
    <circle cx="11" cy="-30" r="3" fill="#FF4444"/>
    <!-- Head -->
    <rect x="-24" y="-19" width="48" height="32" rx="5" fill="#888" stroke="white" stroke-width="2"/>
    <!-- Eyes -->
    <circle cx="-10" cy="-6" r="5" fill="#00CCFF"/>
    <circle cx="10" cy="-6" r="5" fill="#00CCFF"/>
    <circle cx="-9" cy="-7" r="2" fill="white"/>
    <circle cx="11" cy="-7" r="2" fill="white"/>
    <!-- Mouth -->
    <line x1="-7" y1="6" x2="7" y2="6" stroke="#3CB043" stroke-width="2"/>
    <!-- Body -->
    <rect x="-14" y="15" width="28" height="18" fill="#444" stroke="white" stroke-width="2"/>
    <circle cx="0" cy="24" r="3" fill="#FFE066"/>
    <!-- Arms -->
    <line x1="-14" y1="18" x2="-22" y2="26" stroke="white" stroke-width="2"/>
    <line x1="14" y1="18" x2="22" y2="26" stroke="white" stroke-width="2"/>
  </g>

  <!-- Credit -->
  <text x="200" y="230" text-anchor="middle" font-size="14" font-weight="bold" fill="white">by Tejas Diamos</text>
  <text x="200" y="248" text-anchor="middle" font-size="10" fill="#999">Two brothers learning</text>
  <text x="200" y="260" text-anchor="middle" font-size="10" fill="#999">by building robots.</text>

  <!-- Title (outside the watch frame) -->
  <text x="200" y="30" text-anchor="middle" font-size="20" font-weight="bold" fill="white">Made by the Jasbros</text>
</svg>
